<?xml version="1.0" standalone="no"?>
<!DOCTYPE svg PUBLIC "-//W3C//DTD SVG 20010904//EN"
 "http://www.w3.org/TR/2001/REC-SVG-20010904/DTD/svg10.dtd">
<svg version="1.0" xmlns="http://www.w3.org/2000/svg"
 width="960.000000pt" height="960.000000pt" viewBox="0 0 960.000000 960.000000"
 preserveAspectRatio="xMidYMid meet">
<metadata>
Created by potrace 1.14, written by Peter Selinger 2001-2017
</metadata>
<g transform="translate(0.000000,960.000000) scale(0.100000,-0.100000)"
fill="#000000" stroke="none">
<path d="M2950 9589 c-526 -60 -1051 -353 -1440 -805 -430 -499 -680 -1153
-680 -1778 0 -402 100 -786 285 -1091 113 -186 289 -393 445 -520 95 -78 273
-196 281 -188 4 5 177 303 384 663 208 360 386 669 396 686 l19 31 -49 32
c-63 40 -104 87 -140 159 -34 69 -40 93 -51 200 -24 226 73 536 237 764 117
162 235 261 388 324 62 26 82 29 175 29 84 0 118 -5 173 -23 137 -48 332 -204
386 -310 41 -81 55 -158 55 -307 0 -177 -21 -263 -104 -430 -75 -153 -193
-367 -281 -512 -38 -63 -69 -117 -69 -122 0 -4 17 -15 38 -25 20 -10 312 -163
647 -341 336 -178 617 -327 626 -330 12 -4 27 12 59 67 99 168 276 392 460
582 238 245 445 381 735 483 77 26 88 28 270 28 177 0 197 -2 290 -28 440
-121 718 -482 692 -897 -10 -156 -75 -377 -161 -548 -93 -184 -280 -404 -441
-518 -99 -70 -332 -201 -530 -299 -309 -151 -555 -251 -955 -385 -421 -141
-698 -252 -998 -400 -277 -135 -589 -316 -741 -427 -427 -314 -737 -757 -886
-1269 -29 -98 -200 -952 -193 -959 3 -3 225 -54 494 -114 903 -202 1616 -362
1994 -446 206 -46 708 -158 1115 -249 922 -206 1353 -302 1385 -311 l25 -6 82
368 c45 202 124 553 175 780 51 227 90 414 87 417 -3 3 -187 46 -410 96 -481
108 -850 191 -1204 270 -143 32 -514 115 -825 185 -311 69 -572 128 -580 131
-16 7 105 66 335 166 213 92 385 157 665 253 573 196 837 323 1430 688 449
277 637 416 848 626 429 427 751 1014 837 1525 98 582 33 1091 -200 1561 -240
488 -630 867 -1166 1136 -671 336 -1476 407 -2182 192 -48 -14 -89 -24 -90
-22 -2 2 -25 45 -52 94 -251 471 -713 852 -1247 1030 -275 91 -569 124 -838
94z"/>
</g>
</svg>
