<svg xmlns="http://www.w3.org/2000/svg" width="1558.427" height="1884.665" viewBox="0 0 1558.427 1884.665">
  <path id="Tracé_240" data-name="Tracé 240" d="M1545.423,829c-44.115,165.777-151.3,286.059-268.483,360.848-49.974,31.708-95.468,60.314-140.617,85.473-61.693,34.12-122.7,62.382-193.349,84.095-86.163,29.984-154.748,57.9-205.067,83.75l597.968,134.069-68.93,307.427-985.01-220.231,29.64-151.991q50.147-204.2,205.067-301.224a1337.063,1337.063,0,0,1,289.851-137.171c9.995-3.447,19.99-7.237,29.984-10.339,113.39-38.256,203.688-78.58,271.584-120.972,67.9-42.737,111.322-103.4,130.967-182.665q23.78-107.014-45.149-170.257a221.857,221.857,0,0,0-48.251-33.086l-1.034-.345c-40.669-17.922-83.75-23.436-129.244-16.2q-68.241,15.509-140.273,79.959c-22.747,21.368-44.46,45.149-65.828,71.343-9.995,12.752-19.645,25.849-29.3,39.29-4.825,6.548-8.961,13.441-13.1,20.334l-6.2,11.029-3.791,6.549L495.619,630.138q21.713-35.154,36.188-61c9.65-17.233,18.266-33.431,26.538-49.285s14.475-27.917,17.922-37.222c12.407-44.8,13.786-80.993,4.825-107.531a87.97,87.97,0,0,0-17.922-31.018c-8.272-9.995-19.99-19.645-35.844-29.64-31.019-17.922-57.557-24.47-78.58-18.611-23.436,3.447-48.94,18.956-76.168,46.872-25.849,28.261-44.8,62.382-56.523,102.016-10.684,38.945-12.063,71.342-3.791,96.847a95.937,95.937,0,0,0,15.854,28.951c6.548,7.582,15.165,14.475,26.883,21.368L198.186,863.811c-43.426-25.159-82.027-58.59-115.113-100.293C50.676,720.781,27.585,674.943,14.143,626Q-18.943,477.114,25.172,352.7,65.5,228.1,157.173,134.187A492.1,492.1,0,0,1,266.082,51.127c41.7-23.781,88.23-39.635,139.239-47.562Q482.867-6.775,556.278,12.87q72.893,20.679,128.21,57.9C722.055,94.9,756.52,126.6,788.572,165.9a358.525,358.525,0,0,1,46.872,76.857c4.136-1.723,8.616-3.1,12.752-4.48Q1163.034,154,1407.219,358.9q195.417,188.179,138.2,470.1" transform="translate(0 0)" fill="#1e1e1e" opacity="0.068"/>
</svg>
