<svg xmlns="http://www.w3.org/2000/svg" width="60" height="60" viewBox="0 0 60 60">
  <g id="Groupe_81" data-name="Groupe 81" transform="translate(-1155 -731)">
    <circle id="Ellipse_2" data-name="Ellipse 2" cx="30" cy="30" r="30" transform="translate(1155 731)" fill="#fff"/>
    <path id="Icon_ionic-md-arrow-round-up" data-name="Icon ionic-md-arrow-round-up" d="M32.379,17.5,21.558,6.352a2.46,2.46,0,0,0-1.809-.727h-.032a2.46,2.46,0,0,0-1.809.727L7.087,17.5a2.388,2.388,0,0,0,0,3.489,2.671,2.671,0,0,0,3.65,0l6.412-6.7V31.571a2.587,2.587,0,0,0,5.168,0V14.29l6.412,6.7a2.671,2.671,0,0,0,3.65,0A2.388,2.388,0,0,0,32.379,17.5Z" transform="translate(1165.267 741.166)"/>
  </g>
</svg>
