<svg xmlns="http://www.w3.org/2000/svg" width="52.417" height="52.417" viewBox="0 0 52.417 52.417">
  <path id="Icon_awesome-linkedin" data-name="Icon awesome-linkedin" d="M48.673,2.25H3.732A3.76,3.76,0,0,0,0,6.029V50.888a3.76,3.76,0,0,0,3.732,3.779H48.673a3.77,3.77,0,0,0,3.744-3.779V6.029A3.77,3.77,0,0,0,48.673,2.25ZM15.842,47.179H8.073V22.164h7.781V47.179ZM11.958,18.747a4.5,4.5,0,1,1,4.5-4.5,4.507,4.507,0,0,1-4.5,4.5ZM44.964,47.179H37.2V35.011c0-2.9-.059-6.634-4.037-6.634-4.048,0-4.668,3.159-4.668,6.423V47.179H20.721V22.164h7.453V25.58h.105a8.183,8.183,0,0,1,7.359-4.037c7.863,0,9.325,5.183,9.325,11.923Z" transform="translate(0 -2.25)" fill="#0d0d0d"/>
</svg>
