<svg xmlns="http://www.w3.org/2000/svg" width="52.417" height="52.417" viewBox="0 0 52.417 52.417">
  <path id="Icon_awesome-behance-square" data-name="Icon awesome-behance-square" d="M21.821,32.788c0,2.258-1.638,2.972-3.65,2.972H12.894V29.57h5.382C20.452,29.582,21.821,30.483,21.821,32.788Zm-.9-9.629c0-2.071-1.6-2.562-3.381-2.562H12.905v5.242h5C19.668,25.838,20.92,25.066,20.92,23.158ZM36.4,25.873a3.488,3.488,0,0,0-3.709,3.475h7.278C39.769,27.183,38.646,25.873,36.4,25.873ZM52.417,7.866V49.051A5.618,5.618,0,0,1,46.8,54.667H5.616A5.618,5.618,0,0,1,0,49.051V7.866A5.618,5.618,0,0,1,5.616,2.25H46.8A5.618,5.618,0,0,1,52.417,7.866ZM31.79,20.151h9.1V17.94h-9.1ZM26.759,33.057c0-2.82-1.334-5.253-4.1-6.037,2.012-.959,3.065-2.071,3.065-4.329,0-4.47-3.335-5.558-7.184-5.558H7.956V39.6H18.849C22.933,39.574,26.759,37.62,26.759,33.057Zm17.7-1.732c0-4.809-2.82-8.822-7.909-8.822-4.961,0-8.319,3.721-8.319,8.611,0,5.066,3.194,8.541,8.319,8.541,3.885,0,6.4-1.743,7.617-5.476H40.226c-.433,1.392-2.176,2.118-3.533,2.118-2.621,0-3.99-1.533-3.99-4.13H44.426C44.438,31.9,44.461,31.606,44.461,31.325Z" transform="translate(0 -2.25)" fill="#0d0d0d"/>
</svg>
